<svg width="60" height="60" viewBox="0 0 60 60" fill="none" xmlns="http://www.w3.org/2000/svg">
<g id="bi:check">
<path id="Vector" d="M38.7147 18.1492L29.9993 26.866L21.2868 18.1507L21.2867 18.1506C20.871 17.735 20.3072 17.5014 19.7194 17.5014C19.1315 17.5014 18.5677 17.735 18.1521 18.1506C17.7364 18.5663 17.5029 19.1301 17.5029 19.718C17.5029 20.3058 17.7364 20.8695 18.152 21.2852C18.152 21.2852 18.152 21.2853 18.1521 21.2853L26.8646 30.0006L18.1493 38.7132L18.1492 38.7133C17.7335 39.129 17.5 39.6928 17.5 40.2806C17.5 40.8685 17.7335 41.4323 18.1492 41.8479L18.5028 41.4944L18.1492 41.8479C18.5649 42.2636 19.1287 42.4971 19.7165 42.4971C20.3044 42.4971 20.8681 42.2636 21.2838 41.848C21.2838 41.848 21.2838 41.848 21.2838 41.8479L29.9992 33.1354L38.7118 41.8507L38.7119 41.8508C39.1275 42.2665 39.6913 42.5 40.2792 42.5C40.8671 42.5 41.4308 42.2665 41.8465 41.8508C42.2622 41.4351 42.4957 40.8713 42.4957 40.2835C42.4957 39.6956 42.2622 39.1319 41.8466 38.7162C41.8465 38.7162 41.8465 38.7162 41.8465 38.7161L33.1338 30.0007L41.8494 21.2838C42.265 20.8682 42.4986 20.3044 42.4986 19.7165C42.4986 19.1287 42.265 18.5649 41.8494 18.1492C41.4337 17.7335 40.8699 17.5 40.282 17.5C39.6942 17.5 39.1304 17.7335 38.7147 18.1492L38.7147 18.1492Z" fill="#DDFD5C" stroke="#DDFD5C"/>
</g>
</svg>
