<svg width="146" height="143" viewBox="0 0 146 143" fill="none" xmlns="http://www.w3.org/2000/svg">
<g clip-path="url(#clip0_50_4270)">
<path d="M2.02681 23.4593C4.08697 24.9878 6.97784 25.6524 9.60289 25.6524C11.8624 25.6524 16.1157 24.9213 16.1157 21.8643C16.1157 19.2393 12.7928 18.6412 9.53643 18.0098C5.61548 17.2788 1.72775 16.4813 1.72775 12.5936C1.72775 8.70587 6.14713 7.21059 9.60289 7.21059C12.2612 7.21059 14.8198 7.8087 16.6141 9.53658L15.4843 10.7328C14.0223 9.33721 11.8624 8.80555 9.56966 8.80555C6.84493 8.80555 3.38917 9.73595 3.38917 12.5936C3.38917 15.2186 6.5791 15.7503 9.80226 16.3484C13.7564 17.0794 17.7771 17.9434 17.7771 21.8976C17.7771 26.2505 12.4273 27.2806 9.56966 27.2806C6.71202 27.2806 3.4224 26.4498 1.12964 24.8549L1.99358 23.4925L2.02681 23.4593Z" fill="#F1FF51" stroke="#F1FF51" stroke-width="0.926081" stroke-miterlimit="10"/>
<path d="M36.5179 27.2473C31.002 27.2473 26.5161 22.7615 26.5161 17.2123C26.5161 11.6632 31.0352 7.21059 36.5179 7.21059C42.0006 7.21059 46.5529 11.7297 46.5529 17.2123C46.5529 22.695 42.0338 27.2473 36.5179 27.2473ZM36.5179 8.80555C31.9988 8.80555 28.2108 12.6268 28.2108 17.2123C28.2108 21.7979 31.9988 25.6524 36.5179 25.6524C41.0369 25.6524 44.8582 21.8311 44.8582 17.2123C44.8582 12.5936 41.0702 8.80555 36.5179 8.80555Z" fill="#F1FF51" stroke="#F1FF51" stroke-width="0.926081" stroke-miterlimit="10"/>
<path d="M72.5046 13.0256C71.0425 10.5002 68.2846 8.80555 65.2608 8.80555C60.7417 8.80555 56.9537 12.6268 56.9537 17.2123C56.9537 21.7979 60.7417 25.6524 65.2608 25.6524C68.3843 25.6524 71.109 23.9245 72.5378 21.2994L73.9334 22.1301C72.2055 25.1872 68.9491 27.2473 65.2608 27.2473C59.7449 27.2473 55.259 22.7615 55.259 17.2123C55.259 11.6632 59.7781 7.21059 65.2608 7.21059C68.9159 7.21059 72.1391 9.20429 73.9002 12.1616L72.5046 13.0256Z" fill="#F1FF51" stroke="#F1FF51" stroke-width="0.926081" stroke-miterlimit="10"/>
<path d="M83.5361 26.6492V0.830688H85.1976V17.9766L98.1566 7.21055L99.22 8.47323L91.2784 15.0525L101.313 25.6856L100.217 26.915L89.9825 16.1158L85.1976 20.1364V26.6492H83.5361Z" fill="#F1FF51" stroke="#F1FF51" stroke-width="0.926081" stroke-miterlimit="10"/>
<path d="M18.2755 50.4408L19.505 51.4377C17.7771 54.1624 14.7865 56.0232 11.0982 56.0232C4.91771 56.0232 1.09644 51.5042 1.09644 45.9882C1.09644 40.4723 5.3829 35.9865 10.6995 35.9865C16.016 35.9865 20.3025 40.5055 20.3025 45.9882C20.3025 46.5531 20.236 47.1845 20.236 47.1845H2.89077C3.42243 51.2383 6.5459 54.4283 11.0982 54.4283C14.4543 54.4283 16.8467 52.7004 18.2755 50.4408ZM2.82431 45.5895H18.641C18.4417 41.2033 14.9859 37.5814 10.6995 37.5814C6.41298 37.5814 3.02368 41.2033 2.82431 45.5895Z" fill="#F1FF51" stroke="#F1FF51" stroke-width="0.926081" stroke-miterlimit="10"/>
<path d="M1.62817 84.2008V65.1609H3.2896V67.9853C5.01747 65.9252 7.70898 64.7622 11.0318 64.7622C16.4481 64.7622 19.4386 68.1847 19.4386 73.5677V84.2008H17.7772V73.7339C17.7772 68.7496 15.4512 66.3572 10.8324 66.3572C7.44315 66.3572 4.55228 67.9853 3.2896 70.5107V84.2341H1.62817V84.2008Z" fill="#F1FF51" stroke="#F1FF51" stroke-width="0.926081" stroke-miterlimit="10"/>
<path d="M2.02681 109.222C4.08697 110.75 6.97784 111.415 9.60289 111.415C11.8624 111.415 16.1157 110.684 16.1157 107.627C16.1157 105.002 12.7928 104.404 9.53643 103.772C5.61548 103.041 1.72775 102.244 1.72775 98.3561C1.72775 94.4684 6.14713 92.9731 9.60289 92.9731C12.2612 92.9731 14.8198 93.5713 16.6141 95.2991L15.4843 96.4954C14.0223 95.0998 11.8624 94.5681 9.56966 94.5681C6.84493 94.5681 3.38917 95.4985 3.38917 98.3561C3.38917 100.981 6.5791 101.513 9.80226 102.111C13.7564 102.842 17.7771 103.706 17.7771 107.66C17.7771 112.013 12.4273 113.043 9.56966 113.043C6.71202 113.043 3.4224 112.212 1.12964 110.617L1.99358 109.255L2.02681 109.222Z" fill="#F1FF51" stroke="#F1FF51" stroke-width="0.926081" stroke-miterlimit="10"/>
<path d="M18.2755 136.203L19.505 137.2C17.7771 139.925 14.7865 141.786 11.0982 141.786C4.91771 141.786 1.09644 137.267 1.09644 131.751C1.09644 126.235 5.3829 121.749 10.6995 121.749C16.016 121.749 20.3025 126.268 20.3025 131.751C20.3025 132.316 20.236 132.947 20.236 132.947H2.89077C3.42243 137.001 6.5459 140.191 11.0982 140.191C14.4543 140.191 16.8467 138.463 18.2755 136.203ZM2.82431 131.352H18.641C18.4417 126.966 14.9859 123.344 10.6995 123.344C6.41298 123.344 3.02368 126.966 2.82431 131.352Z" fill="#F1FF51" stroke="#F1FF51" stroke-width="0.926081" stroke-miterlimit="10"/>
</g>
<g clip-path="url(#clip1_50_4270)">
<path d="M133.961 135.885L133.96 135.889C133.476 139.553 130.083 142.132 126.39 141.649C126.389 141.648 126.389 141.648 126.388 141.648L112.384 139.747L112.382 139.747L98.3748 137.87L98.3735 137.87L70.107 134.041L70.1068 134.041C58.2281 132.435 50.0363 121.173 52.4633 109.268L52.4638 109.266C54.643 98.4279 65.4006 91.4161 76.4614 92.9086L76.462 92.9087L88.7613 94.5601C93.4809 95.2042 97.8192 91.9265 98.4404 87.2091C98.4405 87.2083 98.4406 87.2074 98.4407 87.2066L102.556 56.9371L102.557 56.9305L102.732 55.7108L102.732 55.7108L102.733 55.7032L103.586 49.3749C103.586 49.3744 103.586 49.3738 103.587 49.3733C104.094 45.7041 107.492 43.1259 111.182 43.6095C111.183 43.6096 111.184 43.6097 111.184 43.6098L139.197 47.4131L139.201 47.4136C142.883 47.8971 145.466 51.2826 144.981 54.9563C144.981 54.9567 144.981 54.9572 144.981 54.9576L133.961 135.885Z" stroke="#F1FF51" stroke-width="1.85216"/>
</g>
<defs>
<clipPath id="clip0_50_4270">
<rect width="102.476" height="142.616" fill="white"/>
</clipPath>
<clipPath id="clip1_50_4270">
<rect width="94.8454" height="100" fill="white" transform="translate(51.104 42.6165)"/>
</clipPath>
</defs>
</svg>
