<svg width="178" height="178" viewBox="0 0 178 178" fill="none" xmlns="http://www.w3.org/2000/svg">
<path fill-rule="evenodd" clip-rule="evenodd" d="M41.5333 0H15.5272C6.95176 0 0 6.95175 0 15.5272V41.5331H3.10544V15.5272C3.10544 8.66684 8.66684 3.10544 15.5272 3.10544H41.5333V0ZM136.467 3.10544V0H162.473C171.048 0 178 6.95176 178 15.5272V41.5331H174.895V15.5272C174.895 8.66684 169.333 3.10544 162.473 3.10544H136.467ZM136.467 174.895H162.473C169.333 174.895 174.895 169.333 174.895 162.473V136.466H178V162.473C178 171.048 171.048 178 162.473 178H136.467V174.895ZM3.10544 136.466V162.473C3.10544 169.333 8.66684 174.895 15.5272 174.895H41.5333V178H15.5272C6.95175 178 0 171.048 0 162.473V136.466H3.10544Z" fill="white"/>
<g clip-path="url(#clip0_231_1921)">
<path d="M121.571 129.203L121.57 129.208L79.3656 90.8355L79.5372 89.5757L79.3683 90.8358L79.3681 90.8358C84.0243 91.4686 88.3126 88.2406 88.9268 83.5847C88.9269 83.5839 88.927 83.5832 88.9271 83.5824L92.8007 55.1521L92.802 55.143L92.9661 54.0002L92.9662 54.0002L92.9676 53.9896L93.7705 48.0462C93.7706 48.0454 93.7707 48.0447 93.7708 48.0439C94.2184 44.8202 97.2123 42.5471 100.473 42.9729C100.473 42.973 100.474 42.9732 100.475 42.9733L126.843 46.5458L126.848 46.5465C130.096 46.9722 132.371 49.951 131.945 53.1802C131.945 53.1809 131.945 53.1816 131.945 53.1823L121.571 129.203ZM88.5204 130.725L88.3519 131.985L88.5222 130.725L88.5204 130.725ZM114.89 134.274L114.725 135.535L114.896 134.275L114.893 134.274C114.892 134.274 114.891 134.274 114.89 134.274Z" stroke="#F1FF51" stroke-width="2.54286"/>
</g>
<defs>
<clipPath id="clip0_231_1921">
<rect width="89.2813" height="93.9394" fill="white" transform="translate(43.9712 41.6421)"/>
</clipPath>
</defs>
</svg>
