<svg width="140" height="140" viewBox="0 0 140 140" fill="none" xmlns="http://www.w3.org/2000/svg">
<path fill-rule="evenodd" clip-rule="evenodd" d="M32.6666 0H12.2124C5.46767 0 0 5.46767 0 12.2124V32.6666H2.44248V12.2124C2.44248 6.81661 6.81662 2.44248 12.2124 2.44248H32.6666V0ZM107.333 2.44248V0H127.788C134.532 0 140 5.46767 140 12.2124V32.6667H137.558V12.2124C137.558 6.81662 133.183 2.44248 127.788 2.44248H107.333ZM107.333 137.558H127.788C133.183 137.558 137.558 133.183 137.558 127.788V107.333H140V127.788C140 134.532 134.532 140 127.788 140H107.333V137.558ZM2.44248 107.333V127.788C2.44248 133.183 6.81661 137.558 12.2124 137.558H32.6666V140H12.2124C5.46767 140 0 134.532 0 127.788V107.333H2.44248Z" fill="white"/>
<g clip-path="url(#clip0_50_1681)">
<path d="M95.6176 101.621L95.6171 101.625C95.282 104.155 92.9311 105.945 90.3645 105.609C90.364 105.609 90.3636 105.609 90.3631 105.609L79.9959 104.204L79.9942 104.204L69.6242 102.817L69.6227 102.817L48.6953 99.9886L48.6951 99.9885C40.0762 98.8257 34.1391 90.6732 35.8984 82.0613L35.8989 82.0587C37.4761 74.2311 45.2737 69.1407 53.3163 70.2237L53.3169 70.2238L62.4224 71.4439C62.4229 71.4439 62.4234 71.444 62.4239 71.4441C66.0862 71.942 69.4592 69.4032 69.9424 65.7412C69.9425 65.7406 69.9425 65.7399 69.9426 65.7392L72.9893 43.3783L72.9903 43.3711L73.1194 42.4723L73.1194 42.4723L73.1205 42.464L73.752 37.7894C73.7521 37.7888 73.7522 37.7883 73.7523 37.7878C74.1042 35.2522 76.459 33.4643 79.0234 33.7992C79.0241 33.7993 79.0248 33.7994 79.0254 33.7994L99.7641 36.6093L99.7684 36.6099C102.323 36.9447 104.113 39.2884 103.777 41.8288C103.777 41.8289 103.777 41.829 103.777 41.8291L95.6176 101.621Z" stroke="white" stroke-width="2"/>
</g>
<defs>
<clipPath id="clip0_50_1681">
<rect width="70.2212" height="73.885" fill="white" transform="translate(34.584 32.7524)"/>
</clipPath>
</defs>
</svg>
