<svg width="96" height="96" viewBox="0 0 96 96" fill="none" xmlns="http://www.w3.org/2000/svg">
<rect x="20" y="20" width="56" height="56" rx="28" fill="#7E7F88"/>
<path d="M51.4421 39.6364V39.7438C51.4421 41.595 49.9463 43.0909 48.095 43.0909H47.9215C46.0372 43.0909 44.5413 41.595 44.5413 39.7438V39.6529C44.5413 37.6281 42.9132 36 40.8967 36H36.781C35.4421 36 34.3595 37.0826 34.3595 38.4215V41.5785C34.3595 42.4132 35.0372 43.0826 35.8636 43.0826H36.3678C37.2025 43.0826 37.8719 43.7603 37.8719 44.5868V57.5785C37.8719 58.9174 38.9545 60 40.2934 60H56.2107C57.5496 60 58.6322 58.9174 58.6322 57.5785V44.6033C58.6322 43.7686 59.3099 43.0992 60.1364 43.0992C60.9711 43.0992 61.6405 42.4215 61.6405 41.595V38.4215C61.6405 37.0826 60.5578 36 59.219 36H55.0785C53.0702 36 51.4421 37.6281 51.4421 39.6364Z" fill="white"/>
</svg>
